<svg width="450" height="300" xmlns="http://www.w3.org/2000/svg"><style>line,path,rect{stroke:#000;stroke-width:2}.red{fill:#f99}.yellow{fill:#ff9}.green{fill:#9f9}.teal{fill:#9ff}.blue{fill:#99f}.purple{fill:#f9f}.l-red{stroke:#b31919}.l-yellow{stroke:#b3b319}.l-green{stroke:#19b319}.l-teal{stroke:#19b3b3}.l-blue{stroke:#1919b3}.l-purple{stroke:#b319b3}.dot-blue,.dot-green,.dot-red{stroke-width:3;stroke:#ccc;fill:#f2f2f2}text{text-anchor:middle;font-family:Helvetica,Arial,sans-serif;font-size:22px;fill:#000}</style><path class="dot-red" d="M10 70h130v100H10z"/><path class="dot-green" d="M160 70h130v100H160z"/><path class="dot-blue" d="M310 70h130v100H310z"/><path class="l-teal" d="M155 40L40 90"/><path class="l-green" d="M180 40l155 70"/><path class="l-yellow" d="M210 40l165 70"/><path class="l-blue" d="M240 40l-45 80"/><path class="l-red" d="M265 40L80 100"/><path class="l-purple" d="M290 40l125 60"/><path class="teal" d="M145 10h20v30h-20z"/><path class="green" d="M165 10h30v30h-30z"/><path class="yellow" d="M195 10h30v30h-30z"/><path class="blue" d="M225 10h30v30h-30z"/><path class="red" d="M255 10h20v30h-20z"/><path class="purple" d="M275 10h30v30h-30z"/><text y="23" x="10" transform="translate(145 10)">9</text><text y="23" x="35" transform="translate(145 10)">26</text><text y="23" x="65" transform="translate(145 10)">24</text><text y="23" x="95" transform="translate(145 10)">17</text><text y="23" x="120" transform="translate(145 10)">4</text><text y="23" x="145" transform="translate(145 10)">22</text><g><path class="l-teal" d="M40 120l45 80"/><path class="l-red" d="M80 130l-15 70"/><path class="teal" d="M30 90h20v30H30z"/><path class="red" d="M70 100h20v30H70z"/><text y="43" x="30" transform="translate(10 70)">9</text><text y="53" x="70" transform="translate(10 70)">4</text><g><path class="l-blue" d="M195 150l30 50"/><path class="blue" d="M180 120h30v30h-30z"/><text y="73" x="35" transform="translate(160 70)">17</text></g><g><path class="l-green" d="M335 140l70 60"/><path class="l-yellow" d="M375 140v60"/><path class="l-purple" d="M415 130l-70 70"/><path class="green" d="M320 110h30v30h-30z"/><path class="yellow" d="M360 110h30v30h-30z"/><path class="purple" d="M400 100h30v30h-30z"/><text y="63" x="25" transform="translate(310 70)">26</text><text y="63" x="65" transform="translate(310 70)">24</text><text y="53" x="105" transform="translate(310 70)">22</text></g></g><g><path class="l-red" d="M65 230l90 30"/><path class="l-teal" d="M85 230l90 30"/><path class="red" d="M55 200h20v30H55z"/><path class="teal" d="M75 200h20v30H75z"/><text y="23" x="-10" transform="translate(75 200)">4</text><text y="23" x="10" transform="translate(75 200)">9</text><g><path class="l-blue" d="M225 230l-25 30"/><path class="blue" d="M210 200h30v30h-30z"/><text y="23" transform="translate(225 200)">17</text></g><g><path class="l-purple" d="M345 230l-115 30"/><path class="l-yellow" d="M375 230l-115 30"/><path class="l-green" d="M405 230l-115 30"/><path class="purple" d="M330 200h30v30h-30z"/><path class="yellow" d="M360 200h30v30h-30z"/><path class="green" d="M390 200h30v30h-30z"/><text y="23" x="-30" transform="translate(375 200)">22</text><text y="23" transform="translate(375 200)">24</text><text y="23" x="30" transform="translate(375 200)">26</text></g></g><g><path class="red" d="M145 260h20v30h-20z"/><path class="teal" d="M165 260h20v30h-20z"/><path class="blue" d="M185 260h30v30h-30z"/><path class="purple" d="M215 260h30v30h-30z"/><path class="yellow" d="M245 260h30v30h-30z"/><path class="green" d="M275 260h30v30h-30z"/><text y="23" x="10" transform="translate(145 260)">4</text><text y="23" x="30" transform="translate(145 260)">9</text><text y="23" x="55" transform="translate(145 260)">17</text><text y="23" x="85" transform="translate(145 260)">22</text><text y="23" x="115" transform="translate(145 260)">24</text><text y="23" x="145" transform="translate(145 260)">26</text></g></svg>